<svg xmlns="http://www.w3.org/2000/svg" xmlns:xlink="http://www.w3.org/1999/xlink" width="500" zoomAndPan="magnify" viewBox="0 0 375 374.999991" height="500" preserveAspectRatio="xMidYMid meet" version="1.0"><defs><g/><clipPath id="d0ae3a122e"><path d="M 170 100.542969 L 205 100.542969 L 205 135 L 170 135 Z M 170 100.542969 " clip-rule="nonzero"/></clipPath><clipPath id="8e1f2dffc5"><path d="M 141.007812 137 L 185 137 L 185 193.542969 L 141.007812 193.542969 Z M 141.007812 137 " clip-rule="nonzero"/></clipPath><clipPath id="2e7a442ee5"><path d="M 189 137 L 233.257812 137 L 233.257812 193.542969 L 189 193.542969 Z M 189 137 " clip-rule="nonzero"/></clipPath></defs><g clip-path="url(#d0ae3a122e)"><path fill="#ffcc00" d="M 189.457031 101.96875 L 194 108.496094 C 194.320312 108.957031 194.789062 109.300781 195.328125 109.460938 L 202.941406 111.765625 C 204.609375 112.269531 205.265625 114.285156 204.210938 115.675781 L 199.40625 122.011719 C 199.066406 122.460938 198.886719 123.011719 198.898438 123.574219 L 199.058594 131.527344 C 199.097656 133.269531 197.382812 134.515625 195.734375 133.941406 L 188.222656 131.332031 C 187.691406 131.148438 187.109375 131.148438 186.578125 131.332031 L 179.066406 133.941406 C 177.417969 134.515625 175.707031 133.269531 175.742188 131.527344 L 175.902344 123.574219 C 175.914062 123.011719 175.734375 122.460938 175.394531 122.011719 L 170.589844 115.675781 C 169.535156 114.285156 170.191406 112.269531 171.859375 111.765625 L 179.472656 109.460938 C 180.011719 109.300781 180.480469 108.957031 180.804688 108.496094 L 185.347656 101.96875 C 186.34375 100.535156 188.460938 100.535156 189.457031 101.96875 Z M 189.457031 101.96875 " fill-opacity="1" fill-rule="nonzero"/></g><path fill="#f68000" d="M 158.160156 110.550781 L 161.34375 115.125 C 161.566406 115.449219 161.894531 115.6875 162.273438 115.800781 L 167.605469 117.414062 C 168.777344 117.769531 169.234375 119.179688 168.496094 120.152344 L 165.128906 124.59375 C 164.890625 124.90625 164.765625 125.292969 164.773438 125.6875 L 164.886719 131.257812 C 164.914062 132.480469 163.710938 133.351562 162.558594 132.949219 L 157.296875 131.121094 C 156.921875 130.992188 156.519531 130.992188 156.144531 131.121094 L 150.882812 132.949219 C 149.730469 133.351562 148.527344 132.480469 148.554688 131.257812 L 148.667969 125.6875 C 148.675781 125.292969 148.550781 124.90625 148.3125 124.59375 L 144.945312 120.152344 C 144.207031 119.179688 144.664062 117.769531 145.835938 117.414062 L 151.167969 115.800781 C 151.546875 115.6875 151.875 115.449219 152.097656 115.125 L 155.28125 110.550781 C 155.980469 109.546875 157.460938 109.546875 158.160156 110.550781 Z M 158.160156 110.550781 " fill-opacity="1" fill-rule="nonzero"/><path fill="#00b0f6" d="M 219.519531 110.550781 L 222.703125 115.125 C 222.929688 115.449219 223.257812 115.6875 223.632812 115.800781 L 228.96875 117.414062 C 230.136719 117.769531 230.59375 119.179688 229.855469 120.152344 L 226.492188 124.59375 C 226.253906 124.90625 226.125 125.292969 226.136719 125.6875 L 226.25 131.257812 C 226.273438 132.480469 225.074219 133.351562 223.917969 132.949219 L 218.65625 131.121094 C 218.285156 130.992188 217.878906 130.992188 217.503906 131.121094 L 212.242188 132.949219 C 211.089844 133.351562 209.890625 132.480469 209.914062 131.257812 L 210.027344 125.6875 C 210.035156 125.292969 209.910156 124.90625 209.671875 124.59375 L 206.304688 120.152344 C 205.566406 119.179688 206.027344 117.769531 207.195312 117.414062 L 212.527344 115.800781 C 212.90625 115.6875 213.234375 115.449219 213.460938 115.125 L 216.640625 110.550781 C 217.339844 109.546875 218.824219 109.546875 219.519531 110.550781 Z M 219.519531 110.550781 " fill-opacity="1" fill-rule="nonzero"/><g clip-path="url(#8e1f2dffc5)"><path fill="#542c7f" d="M 179.5 154.71875 C 185.40625 146.027344 185.828125 135.3125 182.539062 141.472656 C 179.246094 147.632812 171.714844 154.847656 171.714844 154.847656 C 173.1875 153.027344 174.074219 150.714844 174.074219 148.191406 C 174.074219 142.355469 169.339844 137.621094 163.5 137.621094 C 157.660156 137.621094 152.925781 142.355469 152.925781 148.191406 C 152.925781 152.421875 155.414062 156.058594 159 157.75 C 158.988281 157.75 158.980469 157.75 158.96875 157.746094 C 151.707031 156.410156 145.992188 152.496094 142.769531 149.789062 C 142.046875 149.183594 141.019531 150.035156 141.488281 150.855469 C 146.242188 159.191406 156.96875 164.117188 158.664062 167.878906 C 160.605469 172.179688 157.820312 193.859375 160.519531 193.609375 C 163.21875 193.355469 166.339844 171.421875 169.800781 171.589844 C 173.257812 171.757812 182.792969 188.039062 183.972656 186.691406 C 185.152344 185.339844 184.308594 184.074219 180.851562 173.699219 C 177.390625 163.320312 173.597656 163.40625 179.5 154.71875 Z M 179.5 154.71875 " fill-opacity="1" fill-rule="nonzero"/></g><g clip-path="url(#2e7a442ee5)"><path fill="#f68000" d="M 194.914062 154.71875 C 189.011719 146.027344 188.589844 135.3125 191.878906 141.472656 C 195.167969 147.632812 202.703125 154.847656 202.703125 154.847656 C 201.230469 153.027344 200.34375 150.714844 200.34375 148.191406 C 200.34375 142.355469 205.078125 137.621094 210.917969 137.621094 C 216.753906 137.621094 221.488281 142.355469 221.488281 148.191406 C 221.488281 152.421875 219 156.058594 215.414062 157.75 C 215.425781 157.75 215.4375 157.75 215.449219 157.746094 C 222.710938 156.410156 228.421875 152.496094 231.648438 149.789062 C 232.371094 149.183594 233.398438 150.035156 232.929688 150.855469 C 228.175781 159.191406 217.449219 164.117188 215.753906 167.878906 C 213.8125 172.179688 216.597656 193.859375 213.898438 193.609375 C 211.199219 193.355469 208.074219 171.421875 204.617188 171.589844 C 201.160156 171.757812 191.625 188.039062 190.445312 186.691406 C 189.261719 185.339844 190.105469 184.074219 193.566406 173.699219 C 197.023438 163.320312 200.820312 163.40625 194.914062 154.71875 Z M 194.914062 154.71875 " fill-opacity="1" fill-rule="nonzero"/></g><g fill="#542c7f" fill-opacity="1"><g transform="translate(59.560717, 257.387783)"><g><path d="M 26.5 0 L 1.71875 0 C 2.09375 -0.34375 2.382812 -1 2.59375 -1.96875 C 2.800781 -2.9375 2.941406 -4.054688 3.015625 -5.328125 C 3.097656 -6.609375 3.15625 -7.914062 3.1875 -9.25 C 3.226562 -10.582031 3.238281 -11.800781 3.21875 -12.90625 C 3.207031 -14.007812 3.203125 -14.867188 3.203125 -15.484375 L 3.203125 -44.046875 C 3.203125 -44.648438 3.207031 -45.503906 3.21875 -46.609375 C 3.238281 -47.710938 3.226562 -48.929688 3.1875 -50.265625 C 3.15625 -51.597656 3.097656 -52.898438 3.015625 -54.171875 C 2.941406 -55.453125 2.800781 -56.578125 2.59375 -57.546875 C 2.382812 -58.523438 2.09375 -59.1875 1.71875 -59.53125 L 14.28125 -59.53125 C 13.894531 -59.1875 13.597656 -58.523438 13.390625 -57.546875 C 13.179688 -56.578125 13.039062 -55.453125 12.96875 -54.171875 C 12.894531 -52.898438 12.835938 -51.597656 12.796875 -50.265625 C 12.753906 -48.929688 12.742188 -47.710938 12.765625 -46.609375 C 12.785156 -45.503906 12.796875 -44.648438 12.796875 -44.046875 C 12.796875 -43.628906 12.796875 -42.664062 12.796875 -41.15625 C 12.796875 -39.65625 12.796875 -37.816406 12.796875 -35.640625 C 12.796875 -33.472656 12.796875 -31.160156 12.796875 -28.703125 C 12.796875 -26.242188 12.796875 -23.804688 12.796875 -21.390625 C 12.796875 -18.972656 12.796875 -16.773438 12.796875 -14.796875 C 12.796875 -12.816406 12.796875 -11.222656 12.796875 -10.015625 C 12.796875 -8.816406 12.796875 -8.21875 12.796875 -8.21875 L 14.34375 -8.21875 C 16.125 -8.21875 17.632812 -8.226562 18.875 -8.25 C 20.113281 -8.269531 21.3125 -8.40625 22.46875 -8.65625 C 23.632812 -8.90625 24.976562 -9.367188 26.5 -10.046875 Z M 26.5 0 "/></g></g></g><g fill="#542c7f" fill-opacity="1"><g transform="translate(87.609036, 257.387783)"><g><path d="M 2 -12.28125 L 2 -30.5625 C 2 -31.9375 2.160156 -33.363281 2.484375 -34.84375 C 2.804688 -36.332031 3.40625 -37.734375 4.28125 -39.046875 C 5.15625 -40.359375 6.410156 -41.414062 8.046875 -42.21875 C 9.691406 -43.019531 11.828125 -43.421875 14.453125 -43.421875 C 17.160156 -43.421875 19.320312 -42.972656 20.9375 -42.078125 C 22.550781 -41.179688 23.773438 -40.023438 24.609375 -38.609375 C 25.453125 -37.203125 26.015625 -35.707031 26.296875 -34.125 C 26.585938 -32.550781 26.734375 -31.078125 26.734375 -29.703125 L 26.734375 -12.28125 C 26.734375 -11.101562 26.585938 -9.78125 26.296875 -8.3125 C 26.015625 -6.84375 25.453125 -5.429688 24.609375 -4.078125 C 23.773438 -2.734375 22.550781 -1.617188 20.9375 -0.734375 C 19.320312 0.140625 17.160156 0.578125 14.453125 0.578125 C 11.828125 0.578125 9.691406 0.175781 8.046875 -0.625 C 6.410156 -1.425781 5.15625 -2.484375 4.28125 -3.796875 C 3.40625 -5.109375 2.804688 -6.503906 2.484375 -7.984375 C 2.160156 -9.472656 2 -10.90625 2 -12.28125 Z M 11.484375 -31.421875 C 11.484375 -28.066406 11.484375 -24.734375 11.484375 -21.421875 C 11.484375 -18.109375 11.484375 -14.773438 11.484375 -11.421875 C 11.554688 -10.085938 11.867188 -9.125 12.421875 -8.53125 C 12.972656 -7.945312 13.613281 -7.65625 14.34375 -7.65625 C 15.0625 -7.65625 15.707031 -7.945312 16.28125 -8.53125 C 16.851562 -9.125 17.15625 -10.085938 17.1875 -11.421875 C 17.1875 -14.773438 17.1875 -18.109375 17.1875 -21.421875 C 17.1875 -24.734375 17.1875 -28.066406 17.1875 -31.421875 C 17.15625 -32.753906 16.851562 -33.710938 16.28125 -34.296875 C 15.707031 -34.890625 15.0625 -35.1875 14.34375 -35.1875 C 13.613281 -35.1875 12.972656 -34.890625 12.421875 -34.296875 C 11.867188 -33.710938 11.554688 -32.753906 11.484375 -31.421875 Z M 11.484375 -31.421875 "/></g></g></g><g fill="#542c7f" fill-opacity="1"><g transform="translate(116.742729, 257.387783)"><g><path d="M 2.625 -44.046875 C 2.625 -44.648438 2.632812 -45.503906 2.65625 -46.609375 C 2.675781 -47.710938 2.664062 -48.929688 2.625 -50.265625 C 2.59375 -51.597656 2.535156 -52.898438 2.453125 -54.171875 C 2.378906 -55.453125 2.238281 -56.578125 2.03125 -57.546875 C 1.820312 -58.523438 1.523438 -59.1875 1.140625 -59.53125 L 12.109375 -59.53125 L 12.109375 -30.734375 C 12.566406 -31.796875 12.957031 -32.71875 13.28125 -33.5 C 13.601562 -34.28125 13.9375 -35.0625 14.28125 -35.84375 C 14.625 -36.625 15.003906 -37.53125 15.421875 -38.5625 C 15.804688 -39.4375 16.070312 -40.28125 16.21875 -41.09375 C 16.375 -41.914062 16.335938 -42.691406 16.109375 -43.421875 L 28.5 -43.421875 C 28.007812 -42.921875 27.429688 -42.210938 26.765625 -41.296875 C 26.097656 -40.390625 25.535156 -39.4375 25.078125 -38.4375 C 24.359375 -36.84375 23.804688 -35.613281 23.421875 -34.75 C 23.035156 -33.894531 22.75 -33.203125 22.5625 -32.671875 C 22.375 -32.140625 22.164062 -31.609375 21.9375 -31.078125 C 21.707031 -30.546875 21.363281 -29.84375 20.90625 -28.96875 C 22.28125 -28.96875 23.382812 -28.691406 24.21875 -28.140625 C 25.0625 -27.585938 25.679688 -26.878906 26.078125 -26.015625 C 26.472656 -25.160156 26.75 -24.238281 26.90625 -23.25 C 27.0625 -22.257812 27.140625 -21.328125 27.140625 -20.453125 L 27.1875 -15.53125 C 27.1875 -14.8125 27.195312 -13.71875 27.21875 -12.25 C 27.238281 -10.78125 27.316406 -9.226562 27.453125 -7.59375 C 27.585938 -5.957031 27.820312 -4.441406 28.15625 -3.046875 C 28.5 -1.660156 28.992188 -0.644531 29.640625 0 L 16.28125 0 C 16.625 -0.34375 16.898438 -1 17.109375 -1.96875 C 17.316406 -2.9375 17.46875 -4.054688 17.5625 -5.328125 C 17.65625 -6.609375 17.710938 -7.914062 17.734375 -9.25 C 17.753906 -10.582031 17.753906 -11.800781 17.734375 -12.90625 C 17.710938 -14.007812 17.703125 -14.867188 17.703125 -15.484375 C 17.703125 -16.960938 17.566406 -18.175781 17.296875 -19.125 C 17.035156 -20.082031 16.492188 -20.789062 15.671875 -21.25 C 14.859375 -21.707031 13.648438 -21.898438 12.046875 -21.828125 L 12.046875 -15.484375 C 12.046875 -14.867188 12.035156 -14.007812 12.015625 -12.90625 C 12.003906 -11.800781 12.015625 -10.582031 12.046875 -9.25 C 12.085938 -7.914062 12.144531 -6.609375 12.21875 -5.328125 C 12.300781 -4.054688 12.445312 -2.9375 12.65625 -1.96875 C 12.863281 -1 13.15625 -0.34375 13.53125 0 L 1.140625 0 C 1.523438 -0.34375 1.820312 -1 2.03125 -1.96875 C 2.238281 -2.9375 2.378906 -4.054688 2.453125 -5.328125 C 2.535156 -6.609375 2.59375 -7.914062 2.625 -9.25 C 2.664062 -10.582031 2.675781 -11.800781 2.65625 -12.90625 C 2.632812 -14.007812 2.625 -14.867188 2.625 -15.484375 Z M 2.625 -44.046875 "/></g></g></g><g fill="#542c7f" fill-opacity="1"><g transform="translate(147.076038, 257.387783)"><g><path d="M 2 -31.078125 C 2 -35.378906 3.117188 -38.507812 5.359375 -40.46875 C 7.609375 -42.4375 10.582031 -43.421875 14.28125 -43.421875 C 18.007812 -43.421875 21.003906 -42.4375 23.265625 -40.46875 C 25.535156 -38.507812 26.671875 -35.378906 26.671875 -31.078125 L 26.671875 -26.734375 C 26.671875 -25.097656 26.671875 -23.554688 26.671875 -22.109375 C 26.671875 -20.660156 26.660156 -19.488281 26.640625 -18.59375 C 26.628906 -17.695312 26.625 -17.25 26.625 -17.25 L 11.421875 -17.25 C 11.421875 -16.757812 11.429688 -16.128906 11.453125 -15.359375 C 11.472656 -14.597656 11.484375 -13.847656 11.484375 -13.109375 C 11.484375 -12.367188 11.484375 -11.804688 11.484375 -11.421875 C 11.523438 -10.085938 11.941406 -9.113281 12.734375 -8.5 C 13.535156 -7.894531 14.546875 -7.59375 15.765625 -7.59375 C 16.753906 -7.59375 17.492188 -7.820312 17.984375 -8.28125 C 18.484375 -8.738281 18.769531 -9.253906 18.84375 -9.828125 C 18.925781 -10.398438 18.84375 -10.910156 18.59375 -11.359375 C 18.34375 -11.816406 17.953125 -12.046875 17.421875 -12.046875 C 17.421875 -12.847656 17.859375 -13.535156 18.734375 -14.109375 C 19.609375 -14.679688 20.582031 -14.96875 21.65625 -14.96875 C 22.5625 -14.96875 23.453125 -14.765625 24.328125 -14.359375 C 25.210938 -13.960938 25.945312 -13.296875 26.53125 -12.359375 C 27.125 -11.429688 27.421875 -10.128906 27.421875 -8.453125 C 27.421875 -5.898438 26.398438 -3.753906 24.359375 -2.015625 C 22.328125 -0.285156 19.328125 0.578125 15.359375 0.578125 C 12.890625 0.578125 10.644531 0.148438 8.625 -0.703125 C 6.601562 -1.566406 4.992188 -2.910156 3.796875 -4.734375 C 2.597656 -6.566406 2 -8.910156 2 -11.765625 Z M 11.546875 -31.421875 L 11.546875 -25.359375 L 17.25 -25.359375 L 17.25 -31.421875 C 17.25 -32.753906 16.953125 -33.710938 16.359375 -34.296875 C 15.773438 -34.890625 15.117188 -35.1875 14.390625 -35.1875 C 13.671875 -35.1875 13.015625 -34.890625 12.421875 -34.296875 C 11.835938 -33.710938 11.546875 -32.753906 11.546875 -31.421875 Z M 11.546875 -31.421875 "/></g></g></g><g fill="#f15b33" fill-opacity="1"><g transform="translate(187.209088, 260.450728)"><g><path d="M 17.875 0.578125 C 15.863281 0.578125 13.894531 0.300781 11.96875 -0.25 C 10.039062 -0.800781 8.304688 -1.664062 6.765625 -2.84375 C 5.222656 -4.03125 3.992188 -5.546875 3.078125 -7.390625 C 2.171875 -9.242188 1.71875 -11.484375 1.71875 -14.109375 C 1.71875 -15.898438 2.132812 -17.648438 2.96875 -19.359375 C 3.8125 -21.078125 5.003906 -22.5 6.546875 -23.625 C 8.085938 -24.75 9.90625 -25.3125 12 -25.3125 C 13.789062 -25.3125 15.296875 -24.910156 16.515625 -24.109375 C 17.734375 -23.304688 18.585938 -22.25 19.078125 -20.9375 C 19.578125 -19.625 19.578125 -18.148438 19.078125 -16.515625 C 18.503906 -17.046875 17.894531 -17.425781 17.25 -17.65625 C 16.601562 -17.882812 15.972656 -17.976562 15.359375 -17.9375 C 14.179688 -17.894531 13.210938 -17.4375 12.453125 -16.5625 C 11.691406 -15.6875 11.3125 -14.507812 11.3125 -13.03125 C 11.3125 -11.65625 11.84375 -10.460938 12.90625 -9.453125 C 13.976562 -8.441406 15.332031 -7.9375 16.96875 -7.9375 C 18.257812 -7.9375 19.351562 -8.285156 20.25 -8.984375 C 21.144531 -9.691406 21.835938 -10.617188 22.328125 -11.765625 C 22.828125 -12.910156 23.078125 -14.09375 23.078125 -15.3125 C 23.078125 -17.59375 22.597656 -19.609375 21.640625 -21.359375 C 20.691406 -23.117188 19.472656 -24.726562 17.984375 -26.1875 C 16.503906 -27.65625 14.925781 -29.082031 13.25 -30.46875 C 11.570312 -31.863281 9.988281 -33.34375 8.5 -34.90625 C 7.019531 -36.46875 5.800781 -38.21875 4.84375 -40.15625 C 3.894531 -42.101562 3.421875 -44.351562 3.421875 -46.90625 C 3.421875 -49.789062 4.039062 -52.210938 5.28125 -54.171875 C 6.519531 -56.140625 8.148438 -57.628906 10.171875 -58.640625 C 12.191406 -59.648438 14.378906 -60.15625 16.734375 -60.15625 C 20.203125 -60.15625 22.941406 -59.601562 24.953125 -58.5 C 26.972656 -57.394531 28.429688 -55.820312 29.328125 -53.78125 C 30.222656 -51.75 30.671875 -49.320312 30.671875 -46.5 L 30.671875 -44.953125 L 21.421875 -44.953125 L 21.421875 -45.703125 C 21.421875 -47.523438 21.101562 -49.015625 20.46875 -50.171875 C 19.84375 -51.335938 18.769531 -51.921875 17.25 -51.921875 C 15.875 -51.921875 14.863281 -51.5 14.21875 -50.65625 C 13.570312 -49.820312 13.25 -48.722656 13.25 -47.359375 C 13.25 -45.722656 13.710938 -44.21875 14.640625 -42.84375 C 15.578125 -41.46875 16.789062 -40.132812 18.28125 -38.84375 C 19.769531 -37.550781 21.347656 -36.179688 23.015625 -34.734375 C 24.691406 -33.285156 26.269531 -31.6875 27.75 -29.9375 C 29.238281 -28.1875 30.453125 -26.175781 31.390625 -23.90625 C 32.328125 -21.644531 32.796875 -19.023438 32.796875 -16.046875 C 32.796875 -12.546875 32.175781 -9.554688 30.9375 -7.078125 C 29.695312 -4.609375 27.953125 -2.710938 25.703125 -1.390625 C 23.453125 -0.078125 20.84375 0.578125 17.875 0.578125 Z M 17.875 0.578125 "/></g></g></g><g fill="#f15b33" fill-opacity="1"><g transform="translate(222.112381, 260.450728)"><g><path d="M 3.765625 -33.765625 L 1.140625 -33.765625 L 1.140625 -42.84375 C 1.179688 -42.84375 1.484375 -42.945312 2.046875 -43.15625 C 2.617188 -43.363281 3.363281 -43.742188 4.28125 -44.296875 C 5.195312 -44.847656 6.148438 -45.617188 7.140625 -46.609375 C 8.054688 -47.523438 8.828125 -48.445312 9.453125 -49.375 C 10.078125 -50.3125 10.550781 -51.09375 10.875 -51.71875 C 11.207031 -52.351562 11.375 -52.671875 11.375 -52.671875 L 13.140625 -52.671875 L 13.140625 -42.84375 L 15.65625 -42.84375 L 15.65625 -33.765625 L 13.140625 -33.765625 L 13.140625 -14.28125 C 13.140625 -12.90625 13.257812 -11.882812 13.5 -11.21875 C 13.75 -10.550781 14.070312 -10.132812 14.46875 -9.96875 C 14.875 -9.800781 15.304688 -9.753906 15.765625 -9.828125 C 16.222656 -9.898438 16.640625 -9.957031 17.015625 -10 L 17.015625 0 C 15.460938 0 13.90625 -0.0664062 12.34375 -0.203125 C 10.78125 -0.335938 9.347656 -0.742188 8.046875 -1.421875 C 6.753906 -2.109375 5.71875 -3.242188 4.9375 -4.828125 C 4.15625 -6.410156 3.765625 -8.648438 3.765625 -11.546875 Z M 3.765625 -33.765625 "/></g></g></g><g fill="#f15b33" fill-opacity="1"><g transform="translate(240.106729, 260.450728)"><g><path d="M 2 -12.28125 L 2 -30.5625 C 2 -31.9375 2.160156 -33.363281 2.484375 -34.84375 C 2.804688 -36.332031 3.40625 -37.734375 4.28125 -39.046875 C 5.15625 -40.359375 6.410156 -41.414062 8.046875 -42.21875 C 9.691406 -43.019531 11.828125 -43.421875 14.453125 -43.421875 C 17.160156 -43.421875 19.320312 -42.972656 20.9375 -42.078125 C 22.550781 -41.179688 23.773438 -40.023438 24.609375 -38.609375 C 25.453125 -37.203125 26.015625 -35.707031 26.296875 -34.125 C 26.585938 -32.550781 26.734375 -31.078125 26.734375 -29.703125 L 26.734375 -12.28125 C 26.734375 -11.101562 26.585938 -9.78125 26.296875 -8.3125 C 26.015625 -6.84375 25.453125 -5.429688 24.609375 -4.078125 C 23.773438 -2.734375 22.550781 -1.617188 20.9375 -0.734375 C 19.320312 0.140625 17.160156 0.578125 14.453125 0.578125 C 11.828125 0.578125 9.691406 0.175781 8.046875 -0.625 C 6.410156 -1.425781 5.15625 -2.484375 4.28125 -3.796875 C 3.40625 -5.109375 2.804688 -6.503906 2.484375 -7.984375 C 2.160156 -9.472656 2 -10.90625 2 -12.28125 Z M 11.484375 -31.421875 C 11.484375 -28.066406 11.484375 -24.734375 11.484375 -21.421875 C 11.484375 -18.109375 11.484375 -14.773438 11.484375 -11.421875 C 11.554688 -10.085938 11.867188 -9.125 12.421875 -8.53125 C 12.972656 -7.945312 13.613281 -7.65625 14.34375 -7.65625 C 15.0625 -7.65625 15.707031 -7.945312 16.28125 -8.53125 C 16.851562 -9.125 17.15625 -10.085938 17.1875 -11.421875 C 17.1875 -14.773438 17.1875 -18.109375 17.1875 -21.421875 C 17.1875 -24.734375 17.1875 -28.066406 17.1875 -31.421875 C 17.15625 -32.753906 16.851562 -33.710938 16.28125 -34.296875 C 15.707031 -34.890625 15.0625 -35.1875 14.34375 -35.1875 C 13.613281 -35.1875 12.972656 -34.890625 12.421875 -34.296875 C 11.867188 -33.710938 11.554688 -32.753906 11.484375 -31.421875 Z M 11.484375 -31.421875 "/></g></g></g><g fill="#f15b33" fill-opacity="1"><g transform="translate(269.240423, 260.450728)"><g><path d="M 13.53125 0 L 1.140625 0 C 1.523438 -0.34375 1.820312 -1 2.03125 -1.96875 C 2.238281 -2.9375 2.378906 -4.054688 2.453125 -5.328125 C 2.535156 -6.609375 2.59375 -7.914062 2.625 -9.25 C 2.664062 -10.582031 2.675781 -11.800781 2.65625 -12.90625 C 2.632812 -14.007812 2.625 -14.867188 2.625 -15.484375 L 2.625 -27.359375 C 2.625 -27.972656 2.632812 -28.832031 2.65625 -29.9375 C 2.675781 -31.039062 2.664062 -32.257812 2.625 -33.59375 C 2.59375 -34.925781 2.535156 -36.226562 2.453125 -37.5 C 2.378906 -38.78125 2.238281 -39.90625 2.03125 -40.875 C 1.820312 -41.84375 1.523438 -42.5 1.140625 -42.84375 L 12.046875 -42.84375 L 12.046875 -36.21875 C 12.359375 -37.394531 12.828125 -38.523438 13.453125 -39.609375 C 14.078125 -40.703125 14.921875 -41.609375 15.984375 -42.328125 C 17.054688 -43.054688 18.351562 -43.421875 19.875 -43.421875 C 21.820312 -43.421875 23.421875 -42.882812 24.671875 -41.8125 C 25.929688 -40.75 26.863281 -39.390625 27.46875 -37.734375 C 28.082031 -36.078125 28.390625 -34.351562 28.390625 -32.5625 C 28.390625 -29.78125 28.046875 -27.5625 27.359375 -25.90625 C 26.671875 -24.25 25.800781 -23.039062 24.75 -22.28125 C 23.707031 -21.519531 22.632812 -21.140625 21.53125 -21.140625 C 20.238281 -21.140625 19.066406 -21.613281 18.015625 -22.5625 C 16.972656 -23.519531 16.453125 -24.757812 16.453125 -26.28125 C 16.453125 -26.28125 16.59375 -26.28125 16.875 -26.28125 C 17.164062 -26.28125 17.488281 -26.394531 17.84375 -26.625 C 18.207031 -26.851562 18.519531 -27.300781 18.78125 -27.96875 C 19.050781 -28.632812 19.1875 -29.648438 19.1875 -31.015625 C 19.1875 -32.460938 18.898438 -33.519531 18.328125 -34.1875 C 17.765625 -34.851562 17.117188 -35.1875 16.390625 -35.1875 C 15.140625 -35.1875 14.207031 -34.671875 13.59375 -33.640625 C 12.988281 -32.617188 12.585938 -31.15625 12.390625 -29.25 C 12.203125 -27.34375 12.085938 -25.078125 12.046875 -22.453125 L 12.046875 -15.484375 C 12.046875 -14.867188 12.035156 -14.007812 12.015625 -12.90625 C 12.003906 -11.800781 12.015625 -10.582031 12.046875 -9.25 C 12.085938 -7.914062 12.144531 -6.609375 12.21875 -5.328125 C 12.300781 -4.054688 12.445312 -2.9375 12.65625 -1.96875 C 12.863281 -1 13.15625 -0.34375 13.53125 0 Z M 13.53125 0 "/></g></g></g><g fill="#f15b33" fill-opacity="1"><g transform="translate(299.459479, 260.450728)"><g><path d="M 2 -31.078125 C 2 -35.378906 3.117188 -38.507812 5.359375 -40.46875 C 7.609375 -42.4375 10.582031 -43.421875 14.28125 -43.421875 C 18.007812 -43.421875 21.003906 -42.4375 23.265625 -40.46875 C 25.535156 -38.507812 26.671875 -35.378906 26.671875 -31.078125 L 26.671875 -26.734375 C 26.671875 -25.097656 26.671875 -23.554688 26.671875 -22.109375 C 26.671875 -20.660156 26.660156 -19.488281 26.640625 -18.59375 C 26.628906 -17.695312 26.625 -17.25 26.625 -17.25 L 11.421875 -17.25 C 11.421875 -16.757812 11.429688 -16.128906 11.453125 -15.359375 C 11.472656 -14.597656 11.484375 -13.847656 11.484375 -13.109375 C 11.484375 -12.367188 11.484375 -11.804688 11.484375 -11.421875 C 11.523438 -10.085938 11.941406 -9.113281 12.734375 -8.5 C 13.535156 -7.894531 14.546875 -7.59375 15.765625 -7.59375 C 16.753906 -7.59375 17.492188 -7.820312 17.984375 -8.28125 C 18.484375 -8.738281 18.769531 -9.253906 18.84375 -9.828125 C 18.925781 -10.398438 18.84375 -10.910156 18.59375 -11.359375 C 18.34375 -11.816406 17.953125 -12.046875 17.421875 -12.046875 C 17.421875 -12.847656 17.859375 -13.535156 18.734375 -14.109375 C 19.609375 -14.679688 20.582031 -14.96875 21.65625 -14.96875 C 22.5625 -14.96875 23.453125 -14.765625 24.328125 -14.359375 C 25.210938 -13.960938 25.945312 -13.296875 26.53125 -12.359375 C 27.125 -11.429688 27.421875 -10.128906 27.421875 -8.453125 C 27.421875 -5.898438 26.398438 -3.753906 24.359375 -2.015625 C 22.328125 -0.285156 19.328125 0.578125 15.359375 0.578125 C 12.890625 0.578125 10.644531 0.148438 8.625 -0.703125 C 6.601562 -1.566406 4.992188 -2.910156 3.796875 -4.734375 C 2.597656 -6.566406 2 -8.910156 2 -11.765625 Z M 11.546875 -31.421875 L 11.546875 -25.359375 L 17.25 -25.359375 L 17.25 -31.421875 C 17.25 -32.753906 16.953125 -33.710938 16.359375 -34.296875 C 15.773438 -34.890625 15.117188 -35.1875 14.390625 -35.1875 C 13.671875 -35.1875 13.015625 -34.890625 12.421875 -34.296875 C 11.835938 -33.710938 11.546875 -32.753906 11.546875 -31.421875 Z M 11.546875 -31.421875 "/></g></g></g><g fill="#121226" fill-opacity="1"><g transform="translate(110.417753, 288.327322)"><g><path d="M 10.265625 -1.59375 C 10.484375 -1.320312 10.59375 -1.078125 10.59375 -0.859375 C 10.59375 -0.609375 10.492188 -0.398438 10.296875 -0.234375 C 10.109375 -0.078125 9.875 0 9.59375 0 C 9.445312 0 9.300781 -0.0195312 9.15625 -0.0625 C 9.019531 -0.113281 8.882812 -0.207031 8.75 -0.34375 L 4.453125 -4.9375 L 3.109375 -3.75 L 3.109375 -0.9375 C 3.109375 -0.632812 2.992188 -0.398438 2.765625 -0.234375 C 2.546875 -0.078125 2.304688 0 2.046875 0 C 1.785156 0 1.550781 -0.078125 1.34375 -0.234375 C 1.132812 -0.398438 1.03125 -0.632812 1.03125 -0.9375 L 1.03125 -10.53125 C 1.03125 -10.84375 1.132812 -11.070312 1.34375 -11.21875 C 1.550781 -11.375 1.785156 -11.453125 2.046875 -11.453125 C 2.304688 -11.453125 2.546875 -11.375 2.765625 -11.21875 C 2.992188 -11.070312 3.109375 -10.84375 3.109375 -10.53125 L 3.109375 -6.234375 L 8.65625 -11.15625 C 8.882812 -11.351562 9.140625 -11.453125 9.421875 -11.453125 C 9.703125 -11.453125 9.941406 -11.351562 10.140625 -11.15625 C 10.347656 -10.96875 10.453125 -10.753906 10.453125 -10.515625 C 10.453125 -10.265625 10.332031 -10.03125 10.09375 -9.8125 L 5.921875 -6.203125 Z M 10.265625 -1.59375 "/></g></g></g><g fill="#121226" fill-opacity="1"><g transform="translate(122.313059, 288.327322)"><g><path d="M 0.8125 -10.46875 C 0.8125 -10.8125 0.914062 -11.0625 1.125 -11.21875 C 1.34375 -11.375 1.582031 -11.453125 1.84375 -11.453125 C 2.113281 -11.453125 2.359375 -11.375 2.578125 -11.21875 C 2.796875 -11.0625 2.90625 -10.8125 2.90625 -10.46875 L 2.90625 -0.921875 C 2.90625 -0.617188 2.796875 -0.390625 2.578125 -0.234375 C 2.359375 -0.078125 2.113281 0 1.84375 0 C 1.582031 0 1.34375 -0.0703125 1.125 -0.21875 C 0.914062 -0.375 0.8125 -0.609375 0.8125 -0.921875 Z M 0.8125 -10.46875 "/></g></g></g><g fill="#121226" fill-opacity="1"><g transform="translate(126.895087, 288.327322)"><g><path d="M 5.296875 -11.453125 C 6.390625 -11.453125 7.34375 -11.210938 8.15625 -10.734375 C 8.96875 -10.253906 9.601562 -9.582031 10.0625 -8.71875 C 10.519531 -7.863281 10.75 -6.863281 10.75 -5.71875 C 10.75 -4.570312 10.519531 -3.566406 10.0625 -2.703125 C 9.601562 -1.847656 8.96875 -1.179688 8.15625 -0.703125 C 7.34375 -0.234375 6.390625 0 5.296875 0 L 1.59375 0 C 1.269531 0 0.988281 -0.101562 0.75 -0.3125 C 0.519531 -0.519531 0.40625 -0.769531 0.40625 -1.0625 L 0.40625 -10.40625 C 0.40625 -10.6875 0.519531 -10.929688 0.75 -11.140625 C 0.988281 -11.347656 1.269531 -11.453125 1.59375 -11.453125 Z M 5.296875 -1.78125 C 5.972656 -1.78125 6.5625 -1.941406 7.0625 -2.265625 C 7.570312 -2.597656 7.96875 -3.054688 8.25 -3.640625 C 8.53125 -4.234375 8.671875 -4.925781 8.671875 -5.71875 C 8.671875 -6.507812 8.53125 -7.203125 8.25 -7.796875 C 7.96875 -8.398438 7.570312 -8.863281 7.0625 -9.1875 C 6.5625 -9.519531 5.972656 -9.6875 5.296875 -9.6875 L 2.46875 -9.6875 L 2.46875 -1.78125 Z M 5.296875 -1.78125 "/></g></g></g><g fill="#121226" fill-opacity="1"><g transform="translate(139.329446, 288.327322)"><g><path d="M 1.59375 -8.71875 C 1.5 -8.519531 1.367188 -8.375 1.203125 -8.28125 C 1.046875 -8.195312 0.882812 -8.15625 0.71875 -8.15625 C 0.425781 -8.15625 0.179688 -8.289062 -0.015625 -8.5625 C -0.210938 -8.832031 -0.253906 -9.128906 -0.140625 -9.453125 L 0.53125 -11.0625 C 0.632812 -11.269531 0.765625 -11.414062 0.921875 -11.5 C 1.085938 -11.582031 1.265625 -11.625 1.453125 -11.625 C 1.671875 -11.625 1.875 -11.5625 2.0625 -11.4375 C 2.257812 -11.320312 2.390625 -11.160156 2.453125 -10.953125 C 2.523438 -10.753906 2.5 -10.53125 2.375 -10.28125 L 2.390625 -10.296875 Z M 1.59375 -8.71875 "/></g></g></g><g fill="#121226" fill-opacity="1"><g transform="translate(142.366162, 288.327322)"><g><path d="M 0.125 -2.71875 C 0.0390625 -3.0625 0.125 -3.332031 0.375 -3.53125 C 0.625 -3.738281 0.90625 -3.84375 1.21875 -3.84375 C 1.457031 -3.84375 1.671875 -3.785156 1.859375 -3.671875 C 2.046875 -3.554688 2.160156 -3.378906 2.203125 -3.140625 C 2.335938 -2.753906 2.585938 -2.457031 2.953125 -2.25 C 3.316406 -2.039062 3.726562 -1.894531 4.1875 -1.8125 C 4.644531 -1.738281 5.070312 -1.703125 5.46875 -1.703125 C 5.769531 -1.703125 6.109375 -1.722656 6.484375 -1.765625 C 6.859375 -1.816406 7.210938 -1.90625 7.546875 -2.03125 C 7.878906 -2.164062 8.15625 -2.34375 8.375 -2.5625 C 8.59375 -2.789062 8.703125 -3.085938 8.703125 -3.453125 C 8.703125 -3.835938 8.539062 -4.117188 8.21875 -4.296875 C 7.90625 -4.472656 7.5 -4.597656 7 -4.671875 C 6.507812 -4.753906 6 -4.8125 5.46875 -4.84375 C 4.851562 -4.894531 4.234375 -4.96875 3.609375 -5.0625 C 2.992188 -5.15625 2.429688 -5.3125 1.921875 -5.53125 C 1.421875 -5.75 1.015625 -6.0625 0.703125 -6.46875 C 0.390625 -6.882812 0.234375 -7.4375 0.234375 -8.125 C 0.234375 -8.726562 0.390625 -9.253906 0.703125 -9.703125 C 1.015625 -10.148438 1.421875 -10.515625 1.921875 -10.796875 C 2.421875 -11.078125 2.960938 -11.285156 3.546875 -11.421875 C 4.140625 -11.554688 4.71875 -11.625 5.28125 -11.625 C 5.90625 -11.625 6.554688 -11.550781 7.234375 -11.40625 C 7.921875 -11.257812 8.546875 -11.003906 9.109375 -10.640625 C 9.679688 -10.273438 10.109375 -9.765625 10.390625 -9.109375 C 10.484375 -8.773438 10.410156 -8.492188 10.171875 -8.265625 C 9.941406 -8.046875 9.671875 -7.9375 9.359375 -7.9375 C 9.171875 -7.9375 8.988281 -7.984375 8.8125 -8.078125 C 8.632812 -8.171875 8.507812 -8.289062 8.4375 -8.4375 C 8.300781 -8.8125 8.050781 -9.085938 7.6875 -9.265625 C 7.332031 -9.453125 6.9375 -9.570312 6.5 -9.625 C 6.070312 -9.675781 5.671875 -9.703125 5.296875 -9.703125 C 5.054688 -9.703125 4.769531 -9.675781 4.4375 -9.625 C 4.113281 -9.582031 3.796875 -9.5 3.484375 -9.375 C 3.171875 -9.257812 2.910156 -9.097656 2.703125 -8.890625 C 2.492188 -8.679688 2.390625 -8.421875 2.390625 -8.109375 C 2.390625 -7.722656 2.535156 -7.429688 2.828125 -7.234375 C 3.128906 -7.046875 3.53125 -6.914062 4.03125 -6.84375 C 4.53125 -6.769531 5.070312 -6.710938 5.65625 -6.671875 C 6.28125 -6.609375 6.898438 -6.535156 7.515625 -6.453125 C 8.128906 -6.378906 8.6875 -6.242188 9.1875 -6.046875 C 9.695312 -5.847656 10.101562 -5.546875 10.40625 -5.140625 C 10.707031 -4.742188 10.859375 -4.1875 10.859375 -3.46875 C 10.859375 -2.75 10.6875 -2.15625 10.34375 -1.6875 C 10 -1.21875 9.550781 -0.84375 9 -0.5625 C 8.445312 -0.289062 7.859375 -0.101562 7.234375 0 C 6.617188 0.113281 6.03125 0.171875 5.46875 0.171875 C 5 0.171875 4.488281 0.125 3.9375 0.03125 C 3.382812 -0.0507812 2.847656 -0.203125 2.328125 -0.421875 C 1.804688 -0.640625 1.347656 -0.9375 0.953125 -1.3125 C 0.554688 -1.6875 0.28125 -2.15625 0.125 -2.71875 Z M 0.125 -2.71875 "/></g></g></g><g fill="#121226" fill-opacity="1"><g transform="translate(154.602866, 288.327322)"><g/></g></g><g fill="#121226" fill-opacity="1"><g transform="translate(160.137236, 288.327322)"><g><path d="M 9.3125 -11.453125 C 9.65625 -11.453125 9.914062 -11.351562 10.09375 -11.15625 C 10.28125 -10.96875 10.375 -10.753906 10.375 -10.515625 C 10.375 -10.285156 10.28125 -10.070312 10.09375 -9.875 C 9.914062 -9.6875 9.65625 -9.59375 9.3125 -9.59375 L 5.96875 -9.59375 L 5.984375 -0.953125 C 5.984375 -0.628906 5.863281 -0.390625 5.625 -0.234375 C 5.394531 -0.078125 5.160156 0 4.921875 0 C 4.671875 0 4.429688 -0.078125 4.203125 -0.234375 C 3.984375 -0.390625 3.875 -0.628906 3.875 -0.953125 L 3.875 -9.59375 L 0.5625 -9.59375 C 0.207031 -9.59375 -0.046875 -9.6875 -0.203125 -9.875 C -0.367188 -10.070312 -0.453125 -10.285156 -0.453125 -10.515625 C -0.453125 -10.753906 -0.367188 -10.96875 -0.203125 -11.15625 C -0.046875 -11.351562 0.207031 -11.453125 0.5625 -11.453125 Z M 9.3125 -11.453125 "/></g></g></g><g fill="#121226" fill-opacity="1"><g transform="translate(171.349719, 288.327322)"><g><path d="M 12.125 -5.71875 C 12.125 -4.539062 11.878906 -3.507812 11.390625 -2.625 C 10.910156 -1.738281 10.234375 -1.050781 9.359375 -0.5625 C 8.484375 -0.0703125 7.457031 0.171875 6.28125 0.171875 C 5.113281 0.171875 4.085938 -0.0703125 3.203125 -0.5625 C 2.316406 -1.050781 1.625 -1.738281 1.125 -2.625 C 0.632812 -3.507812 0.390625 -4.539062 0.390625 -5.71875 C 0.390625 -6.90625 0.632812 -7.941406 1.125 -8.828125 C 1.625 -9.710938 2.316406 -10.398438 3.203125 -10.890625 C 4.085938 -11.378906 5.113281 -11.625 6.28125 -11.625 C 7.457031 -11.625 8.484375 -11.378906 9.359375 -10.890625 C 10.234375 -10.398438 10.910156 -9.710938 11.390625 -8.828125 C 11.878906 -7.941406 12.125 -6.90625 12.125 -5.71875 Z M 6.28125 -1.65625 C 7.039062 -1.65625 7.695312 -1.820312 8.25 -2.15625 C 8.8125 -2.5 9.25 -2.976562 9.5625 -3.59375 C 9.875 -4.207031 10.03125 -4.914062 10.03125 -5.71875 C 10.03125 -6.53125 9.875 -7.238281 9.5625 -7.84375 C 9.25 -8.457031 8.8125 -8.9375 8.25 -9.28125 C 7.695312 -9.625 7.039062 -9.796875 6.28125 -9.796875 C 5.53125 -9.796875 4.867188 -9.625 4.296875 -9.28125 C 3.734375 -8.9375 3.296875 -8.457031 2.984375 -7.84375 C 2.671875 -7.238281 2.515625 -6.53125 2.515625 -5.71875 C 2.515625 -4.914062 2.671875 -4.207031 2.984375 -3.59375 C 3.296875 -2.976562 3.734375 -2.5 4.296875 -2.15625 C 4.867188 -1.820312 5.53125 -1.65625 6.28125 -1.65625 Z M 6.28125 -1.65625 "/></g></g></g><g fill="#121226" fill-opacity="1"><g transform="translate(185.365325, 288.327322)"><g><path d="M 1.890625 -10.9375 L 5.1875 -6.4375 L 8.5 -10.890625 C 8.632812 -11.054688 8.78125 -11.191406 8.9375 -11.296875 C 9.101562 -11.398438 9.28125 -11.453125 9.46875 -11.453125 C 9.695312 -11.453125 9.898438 -11.375 10.078125 -11.21875 C 10.253906 -11.0625 10.363281 -10.863281 10.40625 -10.625 C 10.445312 -10.382812 10.375 -10.128906 10.1875 -9.859375 L 6.25 -4.59375 L 6.25 -1.078125 C 6.25 -0.742188 6.132812 -0.476562 5.90625 -0.28125 C 5.675781 -0.09375 5.441406 0 5.203125 0 C 4.921875 0 4.675781 -0.09375 4.46875 -0.28125 C 4.269531 -0.476562 4.171875 -0.742188 4.171875 -1.078125 L 4.171875 -4.59375 L 0.140625 -9.921875 C -0.0351562 -10.171875 -0.101562 -10.410156 -0.0625 -10.640625 C -0.0195312 -10.878906 0.09375 -11.070312 0.28125 -11.21875 C 0.476562 -11.375 0.695312 -11.453125 0.9375 -11.453125 C 1.332031 -11.453125 1.648438 -11.28125 1.890625 -10.9375 Z M 1.890625 -10.9375 "/></g></g></g><g fill="#121226" fill-opacity="1"><g transform="translate(197.080934, 288.327322)"><g/></g></g><g fill="#121226" fill-opacity="1"><g transform="translate(202.615304, 288.327322)"><g><path d="M 0.125 -2.71875 C 0.0390625 -3.0625 0.125 -3.332031 0.375 -3.53125 C 0.625 -3.738281 0.90625 -3.84375 1.21875 -3.84375 C 1.457031 -3.84375 1.671875 -3.785156 1.859375 -3.671875 C 2.046875 -3.554688 2.160156 -3.378906 2.203125 -3.140625 C 2.335938 -2.753906 2.585938 -2.457031 2.953125 -2.25 C 3.316406 -2.039062 3.726562 -1.894531 4.1875 -1.8125 C 4.644531 -1.738281 5.070312 -1.703125 5.46875 -1.703125 C 5.769531 -1.703125 6.109375 -1.722656 6.484375 -1.765625 C 6.859375 -1.816406 7.210938 -1.90625 7.546875 -2.03125 C 7.878906 -2.164062 8.15625 -2.34375 8.375 -2.5625 C 8.59375 -2.789062 8.703125 -3.085938 8.703125 -3.453125 C 8.703125 -3.835938 8.539062 -4.117188 8.21875 -4.296875 C 7.90625 -4.472656 7.5 -4.597656 7 -4.671875 C 6.507812 -4.753906 6 -4.8125 5.46875 -4.84375 C 4.851562 -4.894531 4.234375 -4.96875 3.609375 -5.0625 C 2.992188 -5.15625 2.429688 -5.3125 1.921875 -5.53125 C 1.421875 -5.75 1.015625 -6.0625 0.703125 -6.46875 C 0.390625 -6.882812 0.234375 -7.4375 0.234375 -8.125 C 0.234375 -8.726562 0.390625 -9.253906 0.703125 -9.703125 C 1.015625 -10.148438 1.421875 -10.515625 1.921875 -10.796875 C 2.421875 -11.078125 2.960938 -11.285156 3.546875 -11.421875 C 4.140625 -11.554688 4.71875 -11.625 5.28125 -11.625 C 5.90625 -11.625 6.554688 -11.550781 7.234375 -11.40625 C 7.921875 -11.257812 8.546875 -11.003906 9.109375 -10.640625 C 9.679688 -10.273438 10.109375 -9.765625 10.390625 -9.109375 C 10.484375 -8.773438 10.410156 -8.492188 10.171875 -8.265625 C 9.941406 -8.046875 9.671875 -7.9375 9.359375 -7.9375 C 9.171875 -7.9375 8.988281 -7.984375 8.8125 -8.078125 C 8.632812 -8.171875 8.507812 -8.289062 8.4375 -8.4375 C 8.300781 -8.8125 8.050781 -9.085938 7.6875 -9.265625 C 7.332031 -9.453125 6.9375 -9.570312 6.5 -9.625 C 6.070312 -9.675781 5.671875 -9.703125 5.296875 -9.703125 C 5.054688 -9.703125 4.769531 -9.675781 4.4375 -9.625 C 4.113281 -9.582031 3.796875 -9.5 3.484375 -9.375 C 3.171875 -9.257812 2.910156 -9.097656 2.703125 -8.890625 C 2.492188 -8.679688 2.390625 -8.421875 2.390625 -8.109375 C 2.390625 -7.722656 2.535156 -7.429688 2.828125 -7.234375 C 3.128906 -7.046875 3.53125 -6.914062 4.03125 -6.84375 C 4.53125 -6.769531 5.070312 -6.710938 5.65625 -6.671875 C 6.28125 -6.609375 6.898438 -6.535156 7.515625 -6.453125 C 8.128906 -6.378906 8.6875 -6.242188 9.1875 -6.046875 C 9.695312 -5.847656 10.101562 -5.546875 10.40625 -5.140625 C 10.707031 -4.742188 10.859375 -4.1875 10.859375 -3.46875 C 10.859375 -2.75 10.6875 -2.15625 10.34375 -1.6875 C 10 -1.21875 9.550781 -0.84375 9 -0.5625 C 8.445312 -0.289062 7.859375 -0.101562 7.234375 0 C 6.617188 0.113281 6.03125 0.171875 5.46875 0.171875 C 5 0.171875 4.488281 0.125 3.9375 0.03125 C 3.382812 -0.0507812 2.847656 -0.203125 2.328125 -0.421875 C 1.804688 -0.640625 1.347656 -0.9375 0.953125 -1.3125 C 0.554688 -1.6875 0.28125 -2.15625 0.125 -2.71875 Z M 0.125 -2.71875 "/></g></g></g><g fill="#121226" fill-opacity="1"><g transform="translate(214.852008, 288.327322)"><g><path d="M 9.3125 -11.453125 C 9.65625 -11.453125 9.914062 -11.351562 10.09375 -11.15625 C 10.28125 -10.96875 10.375 -10.753906 10.375 -10.515625 C 10.375 -10.285156 10.28125 -10.070312 10.09375 -9.875 C 9.914062 -9.6875 9.65625 -9.59375 9.3125 -9.59375 L 5.96875 -9.59375 L 5.984375 -0.953125 C 5.984375 -0.628906 5.863281 -0.390625 5.625 -0.234375 C 5.394531 -0.078125 5.160156 0 4.921875 0 C 4.671875 0 4.429688 -0.078125 4.203125 -0.234375 C 3.984375 -0.390625 3.875 -0.628906 3.875 -0.953125 L 3.875 -9.59375 L 0.5625 -9.59375 C 0.207031 -9.59375 -0.046875 -9.6875 -0.203125 -9.875 C -0.367188 -10.070312 -0.453125 -10.285156 -0.453125 -10.515625 C -0.453125 -10.753906 -0.367188 -10.96875 -0.203125 -11.15625 C -0.046875 -11.351562 0.207031 -11.453125 0.5625 -11.453125 Z M 9.3125 -11.453125 "/></g></g></g><g fill="#121226" fill-opacity="1"><g transform="translate(226.064487, 288.327322)"><g><path d="M 12.125 -5.71875 C 12.125 -4.539062 11.878906 -3.507812 11.390625 -2.625 C 10.910156 -1.738281 10.234375 -1.050781 9.359375 -0.5625 C 8.484375 -0.0703125 7.457031 0.171875 6.28125 0.171875 C 5.113281 0.171875 4.085938 -0.0703125 3.203125 -0.5625 C 2.316406 -1.050781 1.625 -1.738281 1.125 -2.625 C 0.632812 -3.507812 0.390625 -4.539062 0.390625 -5.71875 C 0.390625 -6.90625 0.632812 -7.941406 1.125 -8.828125 C 1.625 -9.710938 2.316406 -10.398438 3.203125 -10.890625 C 4.085938 -11.378906 5.113281 -11.625 6.28125 -11.625 C 7.457031 -11.625 8.484375 -11.378906 9.359375 -10.890625 C 10.234375 -10.398438 10.910156 -9.710938 11.390625 -8.828125 C 11.878906 -7.941406 12.125 -6.90625 12.125 -5.71875 Z M 6.28125 -1.65625 C 7.039062 -1.65625 7.695312 -1.820312 8.25 -2.15625 C 8.8125 -2.5 9.25 -2.976562 9.5625 -3.59375 C 9.875 -4.207031 10.03125 -4.914062 10.03125 -5.71875 C 10.03125 -6.53125 9.875 -7.238281 9.5625 -7.84375 C 9.25 -8.457031 8.8125 -8.9375 8.25 -9.28125 C 7.695312 -9.625 7.039062 -9.796875 6.28125 -9.796875 C 5.53125 -9.796875 4.867188 -9.625 4.296875 -9.28125 C 3.734375 -8.9375 3.296875 -8.457031 2.984375 -7.84375 C 2.671875 -7.238281 2.515625 -6.53125 2.515625 -5.71875 C 2.515625 -4.914062 2.671875 -4.207031 2.984375 -3.59375 C 3.296875 -2.976562 3.734375 -2.5 4.296875 -2.15625 C 4.867188 -1.820312 5.53125 -1.65625 6.28125 -1.65625 Z M 6.28125 -1.65625 "/></g></g></g><g fill="#121226" fill-opacity="1"><g transform="translate(240.080086, 288.327322)"><g><path d="M 10.375 -1.765625 C 10.644531 -1.472656 10.773438 -1.191406 10.765625 -0.921875 C 10.753906 -0.648438 10.648438 -0.425781 10.453125 -0.25 C 10.265625 -0.0820312 10.039062 0 9.78125 0 C 9.519531 0.0078125 9.28125 -0.101562 9.0625 -0.34375 L 5.84375 -3.765625 L 3.125 -3.765625 L 3.125 -0.9375 C 3.125 -0.632812 3.015625 -0.398438 2.796875 -0.234375 C 2.578125 -0.078125 2.335938 0 2.078125 0 C 1.816406 0 1.578125 -0.078125 1.359375 -0.234375 C 1.148438 -0.390625 1.046875 -0.617188 1.046875 -0.921875 L 1.046875 -10.515625 C 1.046875 -10.785156 1.144531 -11.007812 1.34375 -11.1875 C 1.539062 -11.363281 1.785156 -11.453125 2.078125 -11.453125 L 6.09375 -11.453125 C 7.164062 -11.453125 8.0625 -11.273438 8.78125 -10.921875 C 9.5 -10.578125 10.035156 -10.109375 10.390625 -9.515625 C 10.753906 -8.929688 10.9375 -8.28125 10.9375 -7.5625 C 10.9375 -6.726562 10.710938 -5.992188 10.265625 -5.359375 C 9.816406 -4.734375 9.132812 -4.289062 8.21875 -4.03125 Z M 3.125 -5.515625 L 6.109375 -5.515625 C 7.066406 -5.515625 7.765625 -5.710938 8.203125 -6.109375 C 8.648438 -6.515625 8.863281 -6.992188 8.84375 -7.546875 C 8.832031 -8.140625 8.585938 -8.632812 8.109375 -9.03125 C 7.628906 -9.425781 6.960938 -9.625 6.109375 -9.625 L 3.125 -9.625 Z M 3.125 -5.515625 "/></g></g></g><g fill="#121226" fill-opacity="1"><g transform="translate(252.514441, 288.327322)"><g><path d="M 9.359375 -1.796875 C 9.671875 -1.796875 9.910156 -1.695312 10.078125 -1.5 C 10.253906 -1.300781 10.34375 -1.085938 10.34375 -0.859375 C 10.34375 -0.640625 10.257812 -0.441406 10.09375 -0.265625 C 9.9375 -0.0859375 9.691406 0 9.359375 0 L 2.234375 0 C 1.867188 0 1.578125 -0.101562 1.359375 -0.3125 C 1.148438 -0.519531 1.046875 -0.773438 1.046875 -1.078125 L 1.046875 -10.390625 C 1.046875 -10.671875 1.148438 -10.914062 1.359375 -11.125 C 1.578125 -11.34375 1.867188 -11.453125 2.234375 -11.453125 L 9.359375 -11.453125 C 9.679688 -11.453125 9.921875 -11.363281 10.078125 -11.1875 C 10.234375 -11.007812 10.3125 -10.804688 10.3125 -10.578125 C 10.3125 -10.367188 10.226562 -10.164062 10.0625 -9.96875 C 9.90625 -9.78125 9.671875 -9.6875 9.359375 -9.6875 L 3.09375 -9.6875 L 3.09375 -6.546875 L 9.03125 -6.546875 C 9.34375 -6.546875 9.578125 -6.453125 9.734375 -6.265625 C 9.890625 -6.078125 9.96875 -5.867188 9.96875 -5.640625 C 9.96875 -5.421875 9.890625 -5.222656 9.734375 -5.046875 C 9.578125 -4.867188 9.34375 -4.78125 9.03125 -4.78125 L 3.09375 -4.78125 L 3.09375 -1.796875 Z M 9.359375 -1.796875 "/></g></g></g></svg>